<?xml version="1.0" encoding="UTF-8" standalone="no"?>
<!-- Created with Inkscape (http://www.inkscape.org/) -->

<svg
   width="144.92586mm"
   height="74.370003mm"
   viewBox="0 0 144.92586 74.370003"
   version="1.1"
   id="svg1"
   xml:space="preserve"
   xmlns="http://www.w3.org/2000/svg"
   xmlns:svg="http://www.w3.org/2000/svg"><defs
     id="defs1" /><g
     id="layer1"
     transform="translate(-35.904917,-66.945052)"><path
       style="fill:#04711c"
       d="m 157.11563,129.53358 c -0.61527,-1.19096 -1.66847,-2.8404 -2.34046,-3.66541 l -1.22179,-1.50003 0.80324,-0.83251 c 0.44178,-0.45788 1.38823,-1.88175 2.10321,-3.16417 l 1.29996,-2.33166 0.1629,1.37536 c 0.0896,0.75644 0.21547,1.42793 0.27973,1.4922 0.0643,0.0643 2.40394,0.10369 5.19928,0.0876 4.75791,-0.0274 5.07097,6.3e-4 4.90293,0.43853 -0.40048,1.04363 -3.11378,5.08185 -3.66178,5.44984 -0.32324,0.21707 -0.86414,0.65783 -1.202,0.97948 -0.55138,0.52492 -0.83585,0.57517 -2.77812,0.49068 l -2.16385,-0.0941 -0.13229,1.71979 -0.13229,1.71979 z m -13.55872,-1.10514 c -1.26088,-0.23194 -1.65791,-1.05562 -1.49089,-3.09298 0.0722,-0.88056 0.34988,-2.19024 0.61709,-2.91042 l 0.48584,-1.30941 3.91025,-0.0733 3.91026,-0.0733 -0.0763,1.92539 c -0.042,1.05897 0.0244,2.72906 0.14752,3.71133 l 0.22383,1.78594 -2.8751,0.004 c -1.5813,0.002 -3.11321,0.0483 -3.40426,0.10292 -0.29104,0.0546 -0.94274,0.0232 -1.44822,-0.0698 z m -5.0958,-5.75704 c -0.35255,-0.56463 -1.1675,-2.07081 -1.81099,-3.34705 l -1.16999,-2.32044 1.25678,-2.46598 c 0.69122,-1.35629 1.25677,-2.65484 1.25677,-2.88566 0,-0.23258 -0.67826,-0.8117 -1.52136,-1.299 l -1.52135,-0.87931 4.33044,-0.0729 c 2.71649,-0.0457 4.45395,0.0297 4.66184,0.20219 0.18227,0.15128 0.53495,0.80803 0.78374,1.45946 0.24878,0.65144 1.0218,2.16779 1.71783,3.36969 0.69602,1.20189 1.24095,2.2163 1.21095,2.25423 -0.03,0.0379 -0.56434,-0.11089 -1.18742,-0.33073 -2.02558,-0.71466 -2.52556,-0.57445 -3.52795,0.98936 -0.48971,0.76399 -1.09738,1.5597 -1.35039,1.76824 -0.51483,0.42437 -1.47873,2.1936 -1.48141,2.71914 -9.6e-4,0.1877 -0.22781,0.68418 -0.50412,1.10329 l -0.50237,0.76203 z m 24.33725,-4.09967 c -0.25466,-0.14329 -0.46302,-0.39628 -0.46302,-0.5622 0,-0.37624 -2.03869,-3.84172 -2.70214,-4.59325 -0.58209,-0.65937 -0.58768,-0.65365 2.04068,-2.08795 1.01865,-0.55588 2.36021,-1.37104 2.98126,-1.81148 0.67337,-0.47754 1.21858,-0.70123 1.35065,-0.55413 0.12182,0.13566 1.10197,1.94433 2.17812,4.01926 l 1.95664,3.7726 -0.79375,0.65384 c -0.43656,0.35961 -1.21047,0.76333 -1.71979,0.89716 -1.49297,0.39229 -4.32684,0.54849 -4.82865,0.26615 z m -15.94114,-10.7209 c -0.43657,-0.37292 -1.78295,-1.15152 -2.99197,-1.73022 -1.20901,-0.57869 -2.16066,-1.13248 -2.11476,-1.23066 1.09437,-2.34086 3.83143,-6.835296 4.50107,-7.391049 0.91273,-0.757501 5.22954,3.401759 5.2339,5.042889 0.003,0.96373 -0.51121,1.93045 -1.6905,3.18086 -0.52435,0.55597 -0.95733,1.15121 -0.96217,1.32275 -0.008,0.29483 -0.89953,1.51337 -1.09194,1.493 -0.0494,-0.005 -0.44707,-0.31464 -0.88363,-0.68757 z m 6.62215,0.18018 c -0.0827,-0.13388 0.32084,-0.62213 0.89683,-1.08501 0.57599,-0.46288 1.11605,-1.02089 1.20014,-1.24002 0.0841,-0.21913 -0.31372,-1.42551 -0.88401,-2.68084 -0.5703,-1.25534 -1.11258,-2.53951 -1.20507,-2.85373 -0.0925,-0.314216 -0.84818,-1.236379 -1.67931,-2.049252 l -1.51115,-1.477951 4.12107,-0.0013 c 3.9329,-0.0012 4.14653,0.02591 4.67873,0.594044 0.67961,0.725501 1.14736,1.836659 1.35952,3.229599 0.14619,0.95988 0.24392,1.06432 1.17702,1.25792 0.78378,0.16261 1.29473,0.0885 2.2237,-0.3224 0.66336,-0.29343 1.26392,-0.47571 1.33458,-0.40505 0.14725,0.14726 -1.61528,2.85446 -2.50953,3.85458 -0.32917,0.36814 -0.76188,1.14204 -0.96158,1.71979 l -0.36308,1.05046 -1.82605,0.1694 c -4.41046,0.40917 -5.91036,0.46858 -6.05181,0.23973 z"
       id="path2" /><path
       style="fill:#121613"
       d="m 57.82493,140.82987 c -7.212518,-1.36743 -12.719394,-5.11548 -17.135871,-11.66288 -2.165689,-3.21062 -4.064663,-8.11205 -4.466061,-11.52732 l -0.166756,-1.41883 h 2.266487 c 1.707666,0 2.369001,-0.10252 2.682262,-0.41578 0.786463,-0.78646 0.351632,-3.37186 -0.608666,-3.61898 -0.236923,-0.061 -1.264206,-0.0217 -2.282852,0.0873 -1.033458,0.11056 -1.960555,0.0938 -2.097493,-0.0379 -0.445799,-0.4288 0.531084,-6.06496 1.496845,-8.63611 2.272073,-6.048933 5.877457,-10.415202 11.446257,-13.861884 4.335454,-2.68333 8.855507,-3.928946 14.289807,-3.937921 3.286892,-0.0054 7.385486,0.527007 7.882465,1.023986 0.12209,0.12209 -0.574625,1.437788 -1.548256,2.923774 -1.651555,2.520655 -1.816799,2.689669 -2.464724,2.520958 -0.381967,-0.09946 -2.125992,-0.169358 -3.875611,-0.155331 -4.935643,0.03957 -8.278312,1.064468 -12.103688,3.711124 -4.439239,3.071367 -7.141649,7.067474 -8.336269,12.327004 -0.599083,2.63758 -0.572256,8.94769 0.04774,11.22949 1.951652,7.18272 7.776144,13.11863 14.857062,15.14127 3.003302,0.85788 7.878172,0.85342 10.700652,-0.01 4.152891,-1.27009 8.444332,-4.52662 11.424905,-8.6697 0.826666,-1.14909 1.724057,-2.68268 1.994202,-3.40797 l 0.491171,-1.31871 h 3.362399 c 1.84932,0 3.362945,0.0926 3.363611,0.20583 0.0044,0.75181 -3.055948,6.35183 -4.729165,8.65367 -3.409765,4.69079 -6.445416,7.31457 -10.551532,9.11993 -3.913871,1.72083 -8.184383,2.5013 -9.909507,1.81104 -0.962317,-0.38504 -1.123586,-0.38379 -1.960471,0.0153 -1.070246,0.51036 -0.870557,0.51485 -4.068946,-0.0915 z m 88.9,0.004 c -6.49408,-1.3617 -12.40106,-4.95009 -16.20717,-9.84555 -1.87538,-2.41216 -3.55422,-5.32611 -4.43597,-7.69954 -0.70623,-1.90097 -1.6323,-6.33181 -1.37529,-6.58018 0.10467,-0.10114 1.43256,-0.21582 2.95087,-0.25483 l 2.76058,-0.0709 0.35148,1.57267 c 0.82589,3.69524 3.10601,7.89446 5.86017,10.79244 2.3391,2.46124 5.99501,4.75337 9.07423,5.68925 2.55097,0.77532 7.34961,1.1658 10.26626,0.8354 5.85794,-0.66359 11.46113,-4.02348 14.93167,-8.95361 1.99121,-2.82865 2.85124,-5.02111 3.46817,-8.84134 l 0.16022,-0.99219 h 3.03072 3.03072 v 0.77047 c 0,2.89908 -1.76679,7.98222 -3.99413,11.49132 -4.66181,7.34453 -11.3767,11.54676 -19.95066,12.48531 -1.48652,0.16272 -1.62551,0.12982 -2.18497,-0.5172 -0.67728,-0.78328 -1.51042,-0.74162 -2.76525,0.13825 -0.87319,0.61227 -1.97848,0.60789 -4.97165,-0.0197 z m -50.12354,-8.26771 c -0.24647,-0.35189 -0.411878,-1.1488 -0.411878,-1.98438 0,-1.85963 0.568952,-2.45467 2.347074,-2.45467 h 1.288742 l 0.175092,-1.54759 c 0.19516,-1.72496 -0.117027,-2.89111 -0.830375,-3.10183 -2.455506,-0.72537 -4.555582,-2.50142 -5.753844,-4.86608 l -0.675187,-1.33241 -4.030438,-5.4e-4 c -2.216741,-3e-4 -7.126063,-0.0773 -10.909605,-0.171 l -6.879166,-0.17046 -0.994818,1.45095 c -1.759635,2.56645 -4.277232,3.91813 -7.297778,3.91813 -2.61554,0 -4.127423,-0.60714 -5.885729,-2.36359 -5.388539,-5.38286 -2.147149,-14.18628 5.434461,-14.75967 l 1.985951,-0.1502 2.982081,-4.0952 c 1.640145,-2.252361 4.414788,-6.015598 6.165874,-8.362749 1.751085,-2.34715 3.583093,-4.848478 4.071129,-5.558506 0.488035,-0.710028 1.406813,-1.928736 2.041728,-2.708241 0.634916,-0.779505 1.154392,-1.532322 1.154392,-1.672926 0,-0.30299 -2.367342,-3.766178 -2.766597,-4.047259 -0.151861,-0.106912 -1.288142,-0.199995 -2.525069,-0.206852 -1.349202,-0.0075 -2.412597,-0.141417 -2.657976,-0.33478 -0.843184,-0.664448 -1.310774,-1.657148 -1.310774,-2.782789 0,-0.920602 0.155406,-1.307512 0.773397,-1.925503 l 0.773398,-0.773398 h 9.618772 c 10.6016,0 10.478981,-0.01823 11.185936,1.663119 0.403255,0.959063 0.09516,2.407325 -0.694066,3.2626 -0.458894,0.497298 -0.887615,0.574377 -3.823902,0.687491 -3.497457,0.134733 -4.200547,0.369893 -3.609006,1.207093 0.177106,0.250656 0.559587,0.872457 0.849957,1.38178 0.29037,0.509323 1.656743,2.652448 3.036384,4.7625 6.826523,10.440626 9.405795,14.54502 9.405795,14.96745 0,0.18404 -0.55994,0.54846 -1.24431,0.80982 -0.684371,0.26137 -1.769883,0.87639 -2.412251,1.36672 -0.642367,0.49033 -1.262293,0.79235 -1.377612,0.67115 -0.115319,-0.12119 -1.071423,-1.70863 -2.124676,-3.527641 -2.698286,-4.660052 -7.067725,-10.847916 -7.660044,-10.847916 -0.261067,0 -1.315963,0.90085 -2.344212,2.001889 -1.828899,1.958368 -2.891545,3.443341 -5.431966,7.590797 -0.691317,1.128633 -1.797259,2.676441 -2.457649,3.439581 -0.66039,0.76314 -1.662149,2.33087 -2.226131,3.48384 -0.934807,1.91108 -1.011017,2.22671 -0.862418,3.57188 0.08965,0.81155 0.260941,1.58274 0.380641,1.71375 0.119766,0.13107 5.026801,0.27431 10.911781,0.31851 l 10.694144,0.0803 0.521009,-0.5831 c 0.286556,-0.3207 0.779183,-1.01514 1.094727,-1.5432 0.845142,-1.41432 2.785135,-3.09259 4.492626,-3.88651 2.019296,-0.93891 5.234576,-0.96986 7.529966,-0.0725 2.14492,0.83854 4.3929,2.9782 5.36772,5.10906 0.66477,1.45314 0.76128,1.97816 0.76754,4.17566 0.008,2.76558 -0.14918,3.21301 -2.01433,5.73843 -1.24372,1.684 -2.45133,2.6296 -4.11658,3.22344 -1.20119,0.42835 -1.27445,0.50994 -1.34723,1.50025 -0.0423,0.57599 0.0224,1.52351 0.14391,2.10559 0.21767,1.04294 0.24131,1.06085 1.62567,1.2312 0.77263,0.0951 1.54131,0.30939 1.70817,0.47625 0.16686,0.16686 0.30338,1.08093 0.30338,2.03127 0,2.51216 0.0855,2.47899 -6.38557,2.47899 -5.237264,0 -5.367692,-0.0133 -5.77026,-0.58804 z m 8.49694,-16.21834 c 1.86282,-1.22057 1.30796,-4.33656 -0.97659,-5.48436 -1.77533,-0.89195 -3.664,-0.31731 -4.773543,1.45238 -1.029627,1.64223 -0.173548,3.84559 1.721523,4.43084 1.08076,0.33376 3.23618,0.12036 4.02861,-0.39886 z m -40.500067,-0.49737 c 0.727112,-0.72711 0.899584,-1.10518 0.899584,-1.97193 0,-1.93924 -1.072106,-3.21556 -2.69884,-3.21292 -0.937795,0.002 -2.288576,0.95621 -2.764226,1.95366 -0.564226,1.1832 -0.306814,2.14702 0.869778,3.25669 1.284259,1.21121 2.465145,1.20306 3.693704,-0.0255 z m 62.481347,-3.52874 -2.57968,-0.0888 0.003,-1.37948 c 0.01,-3.83389 1.91152,-9.14177 4.74335,-13.238152 4.49748,-6.50584 11.63982,-10.877 19.28598,-11.803158 2.31046,-0.27986 2.52516,-0.264545 3.33852,0.23814 1.09091,0.674223 1.49404,0.674121 2.27198,-5.79e-4 0.50371,-0.436871 0.84652,-0.508127 1.82642,-0.379651 6.67379,0.875009 12.46762,3.796127 17.30079,8.722671 1.58193,1.612495 4.36283,5.986399 5.3579,8.427129 0.93948,2.30437 1.81482,5.72635 2.05744,8.04318 l 0.14546,1.38907 h -3.16253 -3.16254 l -0.005,-0.99219 c -0.0191,-4.12395 -2.7839,-9.82323 -6.38091,-13.153433 -3.11955,-2.888151 -5.1431,-4.079315 -9.29833,-5.473455 -2.05293,-0.688788 -2.96492,-0.838751 -5.74741,-0.945075 -6.65849,-0.254433 -11.60899,1.739225 -16.55137,6.665546 -3.37866,3.367687 -5.26102,7.350457 -5.8794,12.439897 -0.13759,1.13241 -0.30542,1.58872 -0.58866,1.60054 -0.21791,0.009 -1.55706,-0.0234 -2.97589,-0.0722 z M 82.522267,106.4974 c -0.08629,-0.25466 -0.820441,-1.87095 -1.631451,-3.59175 -1.014654,-2.15289 -1.396374,-3.234033 -1.223871,-3.466346 0.137881,-0.185688 0.900157,-1.248306 1.693946,-2.361374 0.793789,-1.113068 1.531914,-2.023761 1.640277,-2.023761 0.292636,0 2.410283,3.053776 3.510142,5.061841 0.978648,1.78676 2.534452,5.74933 2.534452,6.45515 0,0.32105 -0.557777,0.38926 -3.183304,0.38926 -2.795562,0 -3.202413,-0.0564 -3.340191,-0.46302 z m 30.733723,-0.32908 c -0.25948,-0.50177 -1.10786,-1.57919 -1.8853,-2.39425 l -1.41353,-1.48193 1.36497,-1.70076 c 1.52156,-1.895874 7.98547,-9.274571 14.46964,-16.517418 2.345,-2.619375 4.26381,-4.919758 4.26402,-5.111963 2.1e-4,-0.192205 -0.52089,-1.085174 -1.15801,-1.984375 -0.63712,-0.899202 -1.41065,-2.135463 -1.71897,-2.747249 -0.70633,-1.401543 -1.31087,-1.537516 -5.8352,-1.312447 -3.75901,0.186996 -4.26422,0.05098 -5.2578,-1.415529 -0.85254,-1.258349 -0.65189,-2.48212 0.59585,-3.634166 1.0504,-0.96983 1.24541,-0.991981 7.68598,-0.873002 5.05826,0.09344 5.96765,0.642359 8.13087,4.907898 0.4428,0.873125 1.27341,2.277892 1.8458,3.121705 2.36991,3.493714 3.64937,5.838377 3.64937,6.68765 0,0.767281 -0.18967,0.983338 -1.78594,2.034408 -0.98227,0.646778 -2.27763,1.426557 -2.87859,1.732843 -0.96041,0.489484 -5.01912,4.572793 -7.80231,7.849596 -0.49204,0.579308 -3.15681,3.616854 -5.9217,6.750099 -2.7649,3.13325 -5.2184,5.99031 -5.45223,6.34902 l -0.42514,0.65219 z"
       id="path1" /><g
       id="g10"><path
         style="fill:#04711c"
         d="m 157.11563,129.53358 c -0.61527,-1.19096 -1.66847,-2.8404 -2.34046,-3.66541 l -1.22179,-1.50003 0.80324,-0.83251 c 0.44178,-0.45788 1.38823,-1.88175 2.10321,-3.16417 l 1.29996,-2.33166 0.1629,1.37536 c 0.0896,0.75644 0.21547,1.42793 0.27973,1.4922 0.0643,0.0643 2.40394,0.10369 5.19928,0.0876 4.75791,-0.0274 5.07097,6.3e-4 4.90293,0.43853 -0.40048,1.04363 -3.11378,5.08185 -3.66178,5.44984 -0.32324,0.21707 -0.86414,0.65783 -1.202,0.97948 -0.55138,0.52492 -0.83585,0.57517 -2.77812,0.49068 l -2.16385,-0.0941 -0.13229,1.71979 -0.13229,1.71979 z m -13.55872,-1.10514 c -1.26088,-0.23194 -1.65791,-1.05562 -1.49089,-3.09298 0.0722,-0.88056 0.34988,-2.19024 0.61709,-2.91042 l 0.48584,-1.30941 3.91025,-0.0733 3.91026,-0.0733 -0.0763,1.92539 c -0.042,1.05897 0.0244,2.72906 0.14752,3.71133 l 0.22383,1.78594 -2.8751,0.004 c -1.5813,0.002 -3.11321,0.0483 -3.40426,0.10292 -0.29104,0.0546 -0.94274,0.0232 -1.44822,-0.0698 z m -5.0958,-5.75704 c -0.35255,-0.56463 -1.1675,-2.07081 -1.81099,-3.34705 l -1.16999,-2.32044 1.25678,-2.46598 c 0.69122,-1.35629 1.25677,-2.65484 1.25677,-2.88566 0,-0.23258 -0.67826,-0.8117 -1.52136,-1.299 l -1.52135,-0.87931 4.33044,-0.0729 c 2.71649,-0.0457 4.45395,0.0297 4.66184,0.20219 0.18227,0.15128 0.53495,0.80803 0.78374,1.45946 0.24878,0.65144 1.0218,2.16779 1.71783,3.36969 0.69602,1.20189 1.24095,2.2163 1.21095,2.25423 -0.03,0.0379 -0.56434,-0.11089 -1.18742,-0.33073 -2.02558,-0.71466 -2.52556,-0.57445 -3.52795,0.98936 -0.48971,0.76399 -1.09738,1.5597 -1.35039,1.76824 -0.51483,0.42437 -1.47873,2.1936 -1.48141,2.71914 -9.6e-4,0.1877 -0.22781,0.68418 -0.50412,1.10329 l -0.50237,0.76203 z m 24.33725,-4.09967 c -0.25466,-0.14329 -0.46302,-0.39628 -0.46302,-0.5622 0,-0.37624 -2.03869,-3.84172 -2.70214,-4.59325 -0.58209,-0.65937 -0.58768,-0.65365 2.04068,-2.08795 1.01865,-0.55588 2.36021,-1.37104 2.98126,-1.81148 0.67337,-0.47754 1.21858,-0.70123 1.35065,-0.55413 0.12182,0.13566 1.10197,1.94433 2.17812,4.01926 l 1.95664,3.7726 -0.79375,0.65384 c -0.43656,0.35961 -1.21047,0.76333 -1.71979,0.89716 -1.49297,0.39229 -4.32684,0.54849 -4.82865,0.26615 z m -15.94114,-10.7209 c -0.43657,-0.37292 -1.78295,-1.15152 -2.99197,-1.73022 -1.20901,-0.57869 -2.16066,-1.13248 -2.11476,-1.23066 1.09437,-2.34086 3.83143,-6.835296 4.50107,-7.391049 0.91273,-0.757501 5.22954,3.401759 5.2339,5.042889 0.003,0.96373 -0.51121,1.93045 -1.6905,3.18086 -0.52435,0.55597 -0.95733,1.15121 -0.96217,1.32275 -0.008,0.29483 -0.89953,1.51337 -1.09194,1.493 -0.0494,-0.005 -0.44707,-0.31464 -0.88363,-0.68757 z m 6.62215,0.18018 c -0.0827,-0.13388 0.32084,-0.62213 0.89683,-1.08501 0.57599,-0.46288 1.11605,-1.02089 1.20014,-1.24002 0.0841,-0.21913 -0.31372,-1.42551 -0.88401,-2.68084 -0.5703,-1.25534 -1.11258,-2.53951 -1.20507,-2.85373 -0.0925,-0.314216 -0.84818,-1.236379 -1.67931,-2.049252 l -1.51115,-1.477951 4.12107,-0.0013 c 3.9329,-0.0012 4.14653,0.02591 4.67873,0.594044 0.67961,0.725501 1.14736,1.836659 1.35952,3.229599 0.14619,0.95988 0.24392,1.06432 1.17702,1.25792 0.78378,0.16261 1.29473,0.0885 2.2237,-0.3224 0.66336,-0.29343 1.26392,-0.47571 1.33458,-0.40505 0.14725,0.14726 -1.61528,2.85446 -2.50953,3.85458 -0.32917,0.36814 -0.76188,1.14204 -0.96158,1.71979 l -0.36308,1.05046 -1.82605,0.1694 c -4.41046,0.40917 -5.91036,0.46858 -6.05181,0.23973 z"
         id="path9" /><path
         style="fill:#121613"
         d="m 57.82493,140.82987 c -7.212518,-1.36743 -12.719394,-5.11548 -17.135871,-11.66288 -2.165689,-3.21062 -4.064663,-8.11205 -4.466061,-11.52732 l -0.166756,-1.41883 h 2.266487 c 1.707666,0 2.369001,-0.10252 2.682262,-0.41578 0.786463,-0.78646 0.351632,-3.37186 -0.608666,-3.61898 -0.236923,-0.061 -1.264206,-0.0217 -2.282852,0.0873 -1.033458,0.11056 -1.960555,0.0938 -2.097493,-0.0379 -0.445799,-0.4288 0.531084,-6.06496 1.496845,-8.63611 2.272073,-6.048933 5.877457,-10.415202 11.446257,-13.861884 4.335454,-2.68333 8.855507,-3.928946 14.289807,-3.937921 3.286892,-0.0054 7.385486,0.527007 7.882465,1.023986 0.12209,0.12209 -0.574625,1.437788 -1.548256,2.923774 -1.651555,2.520655 -1.816799,2.689669 -2.464724,2.520958 -0.381967,-0.09946 -2.125992,-0.169358 -3.875611,-0.155331 -4.935643,0.03957 -8.278312,1.064468 -12.103688,3.711124 -4.439239,3.071367 -7.141649,7.067474 -8.336269,12.327004 -0.599083,2.63758 -0.572256,8.94769 0.04774,11.22949 1.951652,7.18272 7.776144,13.11863 14.857062,15.14127 3.003302,0.85788 7.878172,0.85342 10.700652,-0.01 4.152891,-1.27009 8.444332,-4.52662 11.424905,-8.6697 0.826666,-1.14909 1.724057,-2.68268 1.994202,-3.40797 l 0.491171,-1.31871 h 3.362399 c 1.84932,0 3.362945,0.0926 3.363611,0.20583 0.0044,0.75181 -3.055948,6.35183 -4.729165,8.65367 -3.409765,4.69079 -6.445416,7.31457 -10.551532,9.11993 -3.913871,1.72083 -8.184383,2.5013 -9.909507,1.81104 -0.962317,-0.38504 -1.123586,-0.38379 -1.960471,0.0153 -1.070246,0.51036 -0.870557,0.51485 -4.068946,-0.0915 z m 88.9,0.004 c -6.49408,-1.3617 -12.40106,-4.95009 -16.20717,-9.84555 -1.87538,-2.41216 -3.55422,-5.32611 -4.43597,-7.69954 -0.70623,-1.90097 -1.6323,-6.33181 -1.37529,-6.58018 0.10467,-0.10114 1.43256,-0.21582 2.95087,-0.25483 l 2.76058,-0.0709 0.35148,1.57267 c 0.82589,3.69524 3.10601,7.89446 5.86017,10.79244 2.3391,2.46124 5.99501,4.75337 9.07423,5.68925 2.55097,0.77532 7.34961,1.1658 10.26626,0.8354 5.85794,-0.66359 11.46113,-4.02348 14.93167,-8.95361 1.99121,-2.82865 2.85124,-5.02111 3.46817,-8.84134 l 0.16022,-0.99219 h 3.03072 3.03072 v 0.77047 c 0,2.89908 -1.76679,7.98222 -3.99413,11.49132 -4.66181,7.34453 -11.3767,11.54676 -19.95066,12.48531 -1.48652,0.16272 -1.62551,0.12982 -2.18497,-0.5172 -0.67728,-0.78328 -1.51042,-0.74162 -2.76525,0.13825 -0.87319,0.61227 -1.97848,0.60789 -4.97165,-0.0197 z m -50.12354,-8.26771 c -0.24647,-0.35189 -0.411878,-1.1488 -0.411878,-1.98438 0,-1.85963 0.568952,-2.45467 2.347074,-2.45467 h 1.288742 l 0.175092,-1.54759 c 0.19516,-1.72496 -0.117027,-2.89111 -0.830375,-3.10183 -2.455506,-0.72537 -4.555582,-2.50142 -5.753844,-4.86608 l -0.675187,-1.33241 -4.030438,-5.4e-4 c -2.216741,-3e-4 -7.126063,-0.0773 -10.909605,-0.171 l -6.879166,-0.17046 -0.994818,1.45095 c -1.759635,2.56645 -4.277232,3.91813 -7.297778,3.91813 -2.61554,0 -4.127423,-0.60714 -5.885729,-2.36359 -5.388539,-5.38286 -2.147149,-14.18628 5.434461,-14.75967 l 1.985951,-0.1502 2.982081,-4.0952 c 1.640145,-2.252361 4.414788,-6.015598 6.165874,-8.362749 1.751085,-2.34715 3.583093,-4.848478 4.071129,-5.558506 0.488035,-0.710028 1.406813,-1.928736 2.041728,-2.708241 0.634916,-0.779505 1.154392,-1.532322 1.154392,-1.672926 0,-0.30299 -2.367342,-3.766178 -2.766597,-4.047259 -0.151861,-0.106912 -1.288142,-0.199995 -2.525069,-0.206852 -1.349202,-0.0075 -2.412597,-0.141417 -2.657976,-0.33478 -0.843184,-0.664448 -1.310774,-1.657148 -1.310774,-2.782789 0,-0.920602 0.155406,-1.307512 0.773397,-1.925503 l 0.773398,-0.773398 h 9.618772 c 10.6016,0 10.478981,-0.01823 11.185936,1.663119 0.403255,0.959063 0.09516,2.407325 -0.694066,3.2626 -0.458894,0.497298 -0.887615,0.574377 -3.823902,0.687491 -3.497457,0.134733 -4.200547,0.369893 -3.609006,1.207093 0.177106,0.250656 0.559587,0.872457 0.849957,1.38178 0.29037,0.509323 1.656743,2.652448 3.036384,4.7625 6.826523,10.440626 9.405795,14.54502 9.405795,14.96745 0,0.18404 -0.55994,0.54846 -1.24431,0.80982 -0.684371,0.26137 -1.769883,0.87639 -2.412251,1.36672 -0.642367,0.49033 -1.262293,0.79235 -1.377612,0.67115 -0.115319,-0.12119 -1.071423,-1.70863 -2.124676,-3.527641 -2.698286,-4.660052 -7.067725,-10.847916 -7.660044,-10.847916 -0.261067,0 -1.315963,0.90085 -2.344212,2.001889 -1.828899,1.958368 -2.891545,3.443341 -5.431966,7.590797 -0.691317,1.128633 -1.797259,2.676441 -2.457649,3.439581 -0.66039,0.76314 -1.662149,2.33087 -2.226131,3.48384 -0.934807,1.91108 -1.011017,2.22671 -0.862418,3.57188 0.08965,0.81155 0.260941,1.58274 0.380641,1.71375 0.119766,0.13107 5.026801,0.27431 10.911781,0.31851 l 10.694144,0.0803 0.521009,-0.5831 c 0.286556,-0.3207 0.779183,-1.01514 1.094727,-1.5432 0.845142,-1.41432 2.785135,-3.09259 4.492626,-3.88651 2.019296,-0.93891 5.234576,-0.96986 7.529966,-0.0725 2.14492,0.83854 4.3929,2.9782 5.36772,5.10906 0.66477,1.45314 0.76128,1.97816 0.76754,4.17566 0.008,2.76558 -0.14918,3.21301 -2.01433,5.73843 -1.24372,1.684 -2.45133,2.6296 -4.11658,3.22344 -1.20119,0.42835 -1.27445,0.50994 -1.34723,1.50025 -0.0423,0.57599 0.0224,1.52351 0.14391,2.10559 0.21767,1.04294 0.24131,1.06085 1.62567,1.2312 0.77263,0.0951 1.54131,0.30939 1.70817,0.47625 0.16686,0.16686 0.30338,1.08093 0.30338,2.03127 0,2.51216 0.0855,2.47899 -6.38557,2.47899 -5.237264,0 -5.367692,-0.0133 -5.77026,-0.58804 z m 8.49694,-16.21834 c 1.86282,-1.22057 1.30796,-4.33656 -0.97659,-5.48436 -1.77533,-0.89195 -3.664,-0.31731 -4.773543,1.45238 -1.029627,1.64223 -0.173548,3.84559 1.721523,4.43084 1.08076,0.33376 3.23618,0.12036 4.02861,-0.39886 z m -40.500067,-0.49737 c 0.727112,-0.72711 0.899584,-1.10518 0.899584,-1.97193 0,-1.93924 -1.072106,-3.21556 -2.69884,-3.21292 -0.937795,0.002 -2.288576,0.95621 -2.764226,1.95366 -0.564226,1.1832 -0.306814,2.14702 0.869778,3.25669 1.284259,1.21121 2.465145,1.20306 3.693704,-0.0255 z m 62.481347,-3.52874 -2.57968,-0.0888 0.003,-1.37948 c 0.01,-3.83389 1.91152,-9.14177 4.74335,-13.238152 4.49748,-6.50584 11.63982,-10.877 19.28598,-11.803158 2.31046,-0.27986 2.52516,-0.264545 3.33852,0.23814 1.09091,0.674223 1.49404,0.674121 2.27198,-5.79e-4 0.50371,-0.436871 0.84652,-0.508127 1.82642,-0.379651 6.67379,0.875009 12.46762,3.796127 17.30079,8.722671 1.58193,1.612495 4.36283,5.986399 5.3579,8.427129 0.93948,2.30437 1.81482,5.72635 2.05744,8.04318 l 0.14546,1.38907 h -3.16253 -3.16254 l -0.005,-0.99219 c -0.0191,-4.12395 -2.7839,-9.82323 -6.38091,-13.153433 -3.11955,-2.888151 -5.1431,-4.079315 -9.29833,-5.473455 -2.05293,-0.688788 -2.96492,-0.838751 -5.74741,-0.945075 -6.65849,-0.254433 -11.60899,1.739225 -16.55137,6.665546 -3.37866,3.367687 -5.26102,7.350457 -5.8794,12.439897 -0.13759,1.13241 -0.30542,1.58872 -0.58866,1.60054 -0.21791,0.009 -1.55706,-0.0234 -2.97589,-0.0722 z M 82.522267,106.4974 c -0.08629,-0.25466 -0.820441,-1.87095 -1.631451,-3.59175 -1.014654,-2.15289 -1.396374,-3.234033 -1.223871,-3.466346 0.137881,-0.185688 0.900157,-1.248306 1.693946,-2.361374 0.793789,-1.113068 1.531914,-2.023761 1.640277,-2.023761 0.292636,0 2.410283,3.053776 3.510142,5.061841 0.978648,1.78676 2.534452,5.74933 2.534452,6.45515 0,0.32105 -0.557777,0.38926 -3.183304,0.38926 -2.795562,0 -3.202413,-0.0564 -3.340191,-0.46302 z m 30.733723,-0.32908 c -0.25948,-0.50177 -1.10786,-1.57919 -1.8853,-2.39425 l -1.41353,-1.48193 1.36497,-1.70076 c 1.52156,-1.895874 7.98547,-9.274571 14.46964,-16.517418 2.345,-2.619375 4.26381,-4.919758 4.26402,-5.111963 2.1e-4,-0.192205 -0.52089,-1.085174 -1.15801,-1.984375 -0.63712,-0.899202 -1.41065,-2.135463 -1.71897,-2.747249 -0.70633,-1.401543 -1.31087,-1.537516 -5.8352,-1.312447 -3.75901,0.186996 -4.26422,0.05098 -5.2578,-1.415529 -0.85254,-1.258349 -0.65189,-2.48212 0.59585,-3.634166 1.0504,-0.96983 1.24541,-0.991981 7.68598,-0.873002 5.05826,0.09344 5.96765,0.642359 8.13087,4.907898 0.4428,0.873125 1.27341,2.277892 1.8458,3.121705 2.36991,3.493714 3.64937,5.838377 3.64937,6.68765 0,0.767281 -0.18967,0.983338 -1.78594,2.034408 -0.98227,0.646778 -2.27763,1.426557 -2.87859,1.732843 -0.96041,0.489484 -5.01912,4.572793 -7.80231,7.849596 -0.49204,0.579308 -3.15681,3.616854 -5.9217,6.750099 -2.7649,3.13325 -5.2184,5.99031 -5.45223,6.34902 l -0.42514,0.65219 z"
         id="path10" /></g></g></svg>
